<svg xmlns="http://www.w3.org/2000/svg" width="512" height="512" viewBox="0 0 512 512"><rect width="512" height="512" rx="112" fill="#0c0b09"/><circle cx="256" cy="256" r="92" fill="#f97316"/><g stroke="#f97316" stroke-width="28" stroke-linecap="round"><line x1="256" y1="26" x2="256" y2="112"/><line x1="256" y1="400" x2="256" y2="486"/><line x1="26" y1="256" x2="112" y2="256"/><line x1="400" y1="256" x2="486" y2="256"/><line x1="92" y1="92" x2="154" y2="154"/><line x1="358" y1="358" x2="420" y2="420"/><line x1="420" y1="92" x2="358" y2="154"/><line x1="154" y1="358" x2="92" y2="420"/><line x1="174" y1="41" x2="194" y2="128"/><line x1="318" y1="384" x2="338" y2="471"/><line x1="41" y1="174" x2="128" y2="194"/><line x1="384" y1="318" x2="471" y2="338"/><line x1="41" y1="338" x2="128" y2="318"/><line x1="384" y1="194" x2="471" y2="174"/><line x1="174" y1="471" x2="194" y2="384"/><line x1="318" y1="128" x2="338" y2="41"/></g></svg>
